# xmcd
#
# Track frame offsets:
#	150
#	13123
#	29628
#	45764
#	62910
#	79269
#	94771
#	110235
#	124584
#	140016
#
# Disc length: 2072 seconds
#
# Revision: 0
# Processed by: cddbd v1.5.2PL0 Copyright (c) Steve Scherf et al.
# Submitted via: dBpowerAMP V4.0
#
DISCID=8808160a
DTITLE=Luan e Lucian - Luan e Lucian
DYEAR=2011
DGENRE=Sertanejo
TTITLE0=Mulher do meu amigo
TTITLE1=Tira o zóio Jacaré
TTITLE2=Parei no seu olhar
TTITLE3=Nasci pra te amar
TTITLE4=Na beira do mar
TTITLE5=Vaquinha do vovô
TTITLE6=Tchê, tchê, tchê
TTITLE7=Mulher e cerveja
TTITLE8=Cowboy
TTITLE9=Barretão
EXTD=contatos\n18 3323 7688\n18 9788 3293\n\nluciansertanejo@hotmail.com
EXTT0=
EXTT1=
EXTT2=
EXTT3=
EXTT4=
EXTT5=
EXTT6=
EXTT7=
EXTT8=
EXTT9=
PLAYORDER=
